<svg xmlns="http://www.w3.org/2000/svg" width="1200" height="700" viewBox="0 0 1200 700">
<defs><linearGradient id="bg" x1="0" x2="1" y1="0" y2="1"><stop offset="0" stop-color="#ffd27a"/><stop offset="1" stop-color="#f7fbff"/></linearGradient></defs>
<rect width="1200" height="700" fill="url(#bg)"/>
<circle cx="160" cy="130" r="72" fill="#8ee26f" opacity=".75"/>
<rect x="0" y="500" width="1200" height="200" fill="#ef5b17" opacity=".14"/>
<path d="M0 545 C180 485 280 600 455 525 C645 445 780 575 1200 470 L1200 700 L0 700 Z" fill="#ef5b17" opacity=".22"/>
<g opacity=".92">
<rect x="160" y="335" width="145" height="165" rx="10" fill="#ef5b17"/>
<rect x="330" y="270" width="190" height="230" rx="12" fill="#ef5b17" opacity=".88"/>
<rect x="555" y="310" width="145" height="190" rx="10" fill="#ef5b17" opacity=".74"/>
<rect x="208" y="372" width="32" height="44" fill="#ffffff" opacity=".72"/>
<rect x="380" y="315" width="38" height="52" fill="#ffffff" opacity=".72"/>
<rect x="605" y="352" width="32" height="44" fill="#ffffff" opacity=".72"/>
</g>
<text x="50%" y="42%" text-anchor="middle" font-family="Arial, Helvetica, sans-serif" font-size="54" font-weight="900" fill="#061b3a">Restaurant Opening</text>
<text x="50%" y="52%" text-anchor="middle" font-family="Arial, Helvetica, sans-serif" font-size="28" font-weight="700" fill="#314760">Polk County Florida</text>
</svg>