<svg xmlns="http://www.w3.org/2000/svg" width="1800" height="420" viewBox="0 0 1800 420">
<defs>
<linearGradient id="sky" x1="0" y1="0" x2="0" y2="1"><stop offset="0" stop-color="#b9e0ff"/><stop offset=".75" stop-color="#ffffff"/></linearGradient>
<linearGradient id="water" x1="0" y1="0" x2="0" y2="1"><stop offset="0" stop-color="#7ebbe7"/><stop offset="1" stop-color="#dff3ff"/></linearGradient>
</defs>
<rect width="1800" height="420" fill="url(#sky)"/>
<circle cx="250" cy="70" r="34" fill="#fff" opacity=".9"/><circle cx="295" cy="70" r="24" fill="#fff" opacity=".9"/><circle cx="1390" cy="80" r="38" fill="#fff" opacity=".85"/><circle cx="1440" cy="82" r="25" fill="#fff" opacity=".85"/>
<path d="M0 215 C250 150 390 230 590 176 C780 126 930 215 1090 180 C1290 135 1450 190 1800 145 V420 H0Z" fill="#cbe9b6"/>
<path d="M0 250 C280 200 460 260 685 222 C890 185 1050 255 1265 212 C1490 167 1640 214 1800 190 V420 H0Z" fill="url(#water)"/>
<path d="M700 255 C820 235 980 240 1100 265 C910 285 780 278 700 255Z" fill="#ffffff" opacity=".55"/>
<path d="M1370 240 C1388 190 1414 190 1432 240 C1412 220 1390 220 1370 240Z" fill="#fff" opacity=".9"/>
<rect x="80" y="165" width="70" height="50" rx="5" fill="#fff9ea"/><rect x="170" y="150" width="95" height="65" rx="6" fill="#fff"/><rect x="1440" y="150" width="90" height="68" rx="5" fill="#fff5e0"/><rect x="1545" y="130" width="100" height="88" rx="6" fill="#fff"/>
<path d="M0 215 C180 180 420 190 570 170" stroke="#81b463" stroke-width="20" opacity=".8"/>
</svg>